<svg version="1" xmlns="http://www.w3.org/2000/svg" width="4744" height="4744" viewBox="0 0 3558.000000 3558.000000"><path d="M2462 506.1c-143 8-274.4 58.6-372.5 143.4-24.7 21.4-53 51.8-72.7 78-47.2 63-78.1 138.3-88.7 216-3.2 23.7-4.1 37.1-4.1 65.5s.9 41.8 4.1 65.5c16.2 119.6 76.5 236 171.4 331 37.7 37.8 86.2 76.1 129.8 102.5 4.8 2.9 8.7 5.4 8.7 5.6 0 .1-12.5 6.5-27.7 14.2-15.3 7.6-36.2 18.4-46.4 24-17.5 9.5-18.8 10.1-22 9.2-8-2.3-29.5-6-42.9-7.4-40.6-4.1-77.9-2.8-138.5 5-77.4 9.9-123 22.3-160.6 43.6-30.8 17.4-58.7 45-76.6 75.9-3.2 5.4-6.3 9.9-6.9 9.9-.6 0-13.9-3.1-29.5-6.9-53.3-13-113.7-25.9-166.5-35.5-13.8-2.5-25.3-4.6-25.6-4.6-.3 0 1.6-5.2 4.3-11.6 42.3-99.8 60.2-218.4 49.3-326.4-18.1-179.8-109.3-343-252.4-451.9-98.5-74.9-215.9-121.3-341.9-135.1-53.4-5.8-116.2-5.2-169.6 1.5-63.8 8.2-127.9 25.3-190 51-23.1 9.5-70.9 33.5-93.2 46.9-122.4 72.9-218 175-279.8 298.6-39.3 78.5-62.2 158-71.2 247-2.2 22.2-2.5 93.7-.5 115.5 7.2 76.8 25.5 147 55.4 212.9 3.2 7.1 5.7 13 5.6 13.1-.2.1-7.3 2.8-15.8 6-72.1 27-137.3 63.6-188.7 105.9l-6.2 5.1v38.7L0 1897l2.2.5c9.5 2.1 203.9 28.5 210.2 28.5 7.4 0 12.6-2 17.2-6.6 5.6-5.6 7.7-12.1 7.3-22.7-.7-15.7-9.4-27.8-22.8-31.6-3.6-1.1-33.8-5.6-67.1-10.1-33.3-4.4-70.6-9.6-83-11.4l-22.5-3.2 13.5-10.1c42.4-31.6 95.6-59.8 155.5-82.2 8.8-3.3 17.1-6.2 18.5-6.6 2.4-.6 3.1.2 10.4 12.7 67.6 114.4 171.7 206.6 295.9 262.2 76 34 156.7 53.8 242.5 59.6 19.9 1.3 70.5 1.3 90.8-.1 161.2-10.6 311.9-72.4 436.3-178.9 17.5-15 55.7-52.8 70.5-69.8 36.1-41.6 68.5-88.2 92.2-132.6 3.8-7 7.4-13.1 8.2-13.3 2.7-1.1 72.7 12.6 129.7 25.2 42.5 9.5 94.3 21.9 95.2 22.9 1.1 1.1-2.7 15.4-4.8 18-6.4 8.1-8.3 20.7-8.3 54.1 0 42.1 6 71.7 20.5 101.2 23.1 46.9 60.3 70.4 135 85.2 56.6 11.3 102.8 15.4 146 13.2 22.3-1.1 46-3.6 62.4-6.5 4.4-.7 8.3-1.1 8.7-.7 1.5 1.5 13.4 30.8 18.4 45.5 14.8 43.6 21.7 85.5 21.7 132.6.1 30.8-1.8 51.5-7.3 80-2 10.1-9.9 43.1-10.6 43.9-.6.6-38.7 9.9-66.2 16-121.3 27.1-238.6 42.9-355.7 48-89.6 3.9-184.2 1.2-295.5-8.5-76.9-6.6-188.5-19.5-229.7-26.4-48.2-8.1-62-7.5-102.4 4.5-6.4 1.9-12.9 3.5-14.5 3.5-3.8 0-12.7 4.2-18.9 9-7.8 5.9-20.7 13-51 27.9-15.4 7.6-32.2 16.3-37.3 19.4-51.6 31.5-79.7 77.5-86.3 141.6-1.5 14.1-.6 45.6 1.6 59.4 12.7 80.4 54.3 152.4 132.6 229.2 78.4 77 178.4 136.1 296.9 175.6 109.3 36.4 229.9 55 401 61.9 284 11.4 483.1-8.7 674-68.2 188.4-58.6 360.4-161.9 522-313.3 107.6-100.8 230-251 300.7-369 54.1-90.2 91.1-178.4 107.7-257 5-23.4 6-32.2 6-50-.1-18.1-2-29.4-7.3-43-16.9-43.8-68.1-74.9-136-82.6-15.1-1.7-50.1-.6-66.6 2-37.2 6-77.1 19.4-122 41-20.6 9.9-37.1 18.8-84.5 45.6-265.7 150.1-417.1 221.9-592.5 281.1-50.7 17.1-127.6 40.6-128.9 39.3-.2-.2.4-4 1.5-8.4 2.6-10.8 7.5-41.3 9.1-56 2-18.6 1.7-77.3-.5-95.5-5.3-43.7-15.5-84.2-30.8-122.1-3.2-8.1-5.9-15.1-5.9-15.6 0-.6 6.6-2.7 14.8-4.8 70.5-17.9 110.3-39.6 155.2-84.5 39.9-39.8 66.2-82.5 75.6-123 3.1-13.2 4.2-34.8 2.5-47.1-2.4-15.8-8.7-32-18.1-46-16.3-24.3-75.5-68.6-124.7-93.3-5.1-2.5-9.3-4.8-9.3-5.1 0-.7 52.5-26.9 71.1-35.5l14.9-6.9 18.2 8.6c75.1 35.2 151.6 57.6 232.8 68.3 53.3 7 116.4 7.9 169 2.4 141.1-14.7 269-71.2 358.7-158.6l11.3-10.9 13.7 3.6c66.1 17.6 125.2 39.3 184.3 67.7l16.5 7.9-12.5 6c-18.6 8.9-22.5 13.6-22.4 26.9 0 9.3 3.1 16.8 9.7 23.4 5.5 5.5 10.5 8.1 18 9.5 9.2 1.7 14.1.1 45.8-14.5l29.2-13.5 9.1 5.7c34.8 21.8 77 52.9 107.1 78.8 14.5 12.4 32.5 28.9 32.1 29.3-.5.6-41.4 5.6-80.1 9.8-30.7 3.4-33.4 3.8-39.2 6.6-7.1 3.4-11.5 8-15.2 15.9-2.2 4.7-2.6 6.8-2.6 15 .1 11.1 2.2 16.7 8.5 22.4 4.5 4.1 9.3 5.6 17.5 5.6 9.1 0 93.9-9.7 144.4-16.5 10.1-1.4 18.5-2.5 18.7-2.5.2 0 .4-14.8.4-32.9v-32.8l-12.2-11.9c-40.6-39.4-85.4-75.9-129-104.9-6.5-4.3-11.8-8.1-11.8-8.5 0-.4 34.4-16.6 76.5-36.1l76.5-35.4v-34.8c0-19.1-.3-34.7-.6-34.7-.5 0-201 92.6-216.1 99.8-3.1 1.5-3.2 1.4-30-12.1-61.8-31.2-118.8-53.6-184.3-72.5l-20-5.8 7.6-9.9c54.5-71.3 87.6-158.8 94.5-249.5 1.5-20.2.6-69.8-1.5-88-7.7-63.7-24-118.2-52.6-176.5-44-89.6-110.4-168.3-196.4-232.9-139.8-105-321.9-160.2-496.6-150.5zm75.5 70.9c85.6 5 167.3 24.8 245.5 59.2 19.6 8.6 57.1 28 75 38.8 124.9 74.9 217.7 185.4 258.5 307.5 29.4 88.3 30.1 179 2.1 262.9-28.4 84.7-85.5 158.4-164 211.8-21.1 14.3-35 22.4-59.6 34.7-141.7 70.6-316.9 79-483.3 23.1-82.2-27.6-155.6-68.4-221.2-122.9-18.6-15.5-60.5-57.2-74.9-74.6-63.7-76.7-102.5-158.9-116-245.7-3.9-24.7-4.9-42-4.3-72 .5-29.9 1.8-42.1 7.2-69.3 21.2-106.5 84.6-198.5 181.6-263.3 80.2-53.6 179.3-84.6 288.9-90.5 13.8-.8 49.1-.6 64.5.3zM935 785.4c147.7 15 276.8 74.6 376 173.6 150.1 149.9 205.6 368.6 146.1 574.8-25.1 86.7-66.4 164-125.7 235.3-16.4 19.8-60.5 63.9-80.3 80.3-88.9 73.9-191.2 123-302.5 145.1-136.9 27.1-280.3 8.8-402.3-51.5-41.4-20.4-78.1-43.6-111.3-70.4-112.9-91.1-187.5-220.1-209.4-362.6-5.2-33.9-6-45.7-6-88.5 0-41.7.7-52.8 5.5-86 24-165.9 118.6-320.9 258.4-423 102.7-75.1 222.1-118.9 350-128.4 18.2-1.4 83.2-.5 101.5 1.3zm1159.5 833c36.5 5.2 68.6 15.8 97.3 32.1 46.2 26.5 81.2 53 90.5 68.6 6 10.2 8.1 18.3 7.4 29.8-.9 16.2-6.4 28.9-25.2 57.1-22.9 34.6-52.8 64.6-82.7 83.2-9.5 5.9-34.7 18.3-35.5 17.4-1.3-1.2 21.3-73.5 40.1-128.2 9.5-27.8 10.5-33.7 6.7-41.9-2.5-5.5-11-13-17.4-15.2-8-2.8-19.7-2.4-26.8.8-6.4 3-12 8.4-14.9 14.4-3 6.2-25.7 73.5-35.6 105.5-4.7 15.1-8.6 27.6-8.8 27.7-.1.1-4.6-5.1-10.1-11.5-14.1-16.6-57.9-60.2-71-70.6-41.1-32.8-70.1-42.1-88.9-28.5-9.4 6.7-17.3 23.2-16.3 34 1.3 14.3 13.4 24.4 30.3 25.3 3.5.2 6.9.8 7.6 1.4 1.5 1.2 8.7 6.1 22.4 15.2 5.5 3.7 14.7 10.5 20.5 15.1 12.4 9.9 38 34.8 48.9 47.4 11 12.8 26.1 32.9 25.2 33.6-.9.9-32.2 5.3-49.7 7.1-16.8 1.7-65.1 1.7-81.5 0-37.9-4-75.4-11.6-107.5-21.9-12.4-4-20.7-7.9-28-13.1-4.9-3.6-5.2-3.6-13.3-3.3-10.3.3-16.4-1.6-22.6-7-12.1-10.6-14.1-31.2-4.3-44.1 2.8-3.7 3.2-4.8 2.5-7.8-1.7-7.9-3-20.4-3.9-36-.5-9.1-1.2-19.3-1.5-22.8-.7-7.2 1.9-17.4 8.8-35 16.5-42.4 45.4-79.8 84.5-109.5 15.2-11.6 25.4-12.7 37.6-4l4.8 3.4 18.2-4.6c29.1-7.2 58.8-11.7 100.2-15 23.5-1.9 75.7-1.4 92 .9zm734.1 437.1c4.7 8.1 6.6 14.5 7.4 25.5 1 13.9-.4 31.4-3.4 43.3-6.8 26.6-24.4 44.9-44.7 46.4-15.8 1.2-30.3-4.9-44-18.6-8-8.1-25.1-29.8-28.4-36.1l-1.5-2.9 15.3-8.2c17.9-9.7 59.9-33.1 81.2-45.3 8.3-4.7 15.1-8.6 15.2-8.6.1 0 1.4 2 2.9 4.5zm-269.2 140.2c1.9 4 3.6 12.5 6.3 31.8 1.2 8.5 1.7 19.3 1.7 37.5.1 24.5 0 25.7-2.2 31-8.7 20.5-27.7 32.8-44.7 29-7.1-1.6-31.3-13.6-42.8-21.3-13.4-9.1-22.5-16.7-33.7-28.3-9.2-9.6-21.7-25-20.9-25.8.2-.2 7.6-3.3 16.4-6.9 31.2-12.7 83.4-35.4 104.5-45.5 5.8-2.8 11.2-5.1 12.1-5.1.8-.1 2.3 1.6 3.3 3.6zm542.1 46.4c3.3.6 7.4 1.8 9.2 2.7l3.2 1.7-10.2 17c-8 13.2-29.2 46.9-33.9 53.9-1.3 1.9-8.8-6.6-12.6-14.3-3.3-6.8-3.7-8.3-4-17.5-.3-8.4 0-11.2 1.8-16.5 6.9-20.5 24.9-31 46.5-27zm-1868.4 158.4c32.8 3.8 85.9 9.5 88.9 9.5 2.6 0 2.6 3.3 0 13.6-8.6 33.8-40.6 63.1-65.4 60-18.1-2.3-35.7-22.3-46.5-52.9-4.2-11.9-8.6-33.7-6.7-33.7.1 0 13.5 1.6 29.7 3.5zm154.9 15.4c12.9 1.1 28.7 2.3 35 2.6 6.3.3 12.5.8 13.8 1.1 2.8.6 2.9 3.2.3 10.6-6.6 19.1-23.5 29.2-44.6 26.7-16.6-2-30.2-15.3-33.5-32.9-.5-2.9-1-6.3-1-7.6 0-3-.6-3 30-.5zm1422 110.6c25.5 3.1 44.4 8.1 67.1 17.7l11.9 5-1.9 2.7c-6 8.3-76.6 78.1-101.9 100.6l-4.3 3.8-7-6.9c-9.5-9.3-17.5-20.1-23.1-30.9-12.9-25.2-17.5-57.5-10.4-73 4.7-10.5 12.4-16.3 25-19 8.3-1.8 29.6-1.8 44.6 0zm-116.7 132.9c14.2 4.8 29.1 13.4 42.7 24.7 5.1 4.2 5.9 5.3 4.9 6.5-1.8 2.2-32.2 26.4-50.9 40.6-20 15.2-36.3 26.9-57.3 41.2l-15.8 10.8-3.1-2.8c-8.9-8.5-17.8-35.4-17.8-53.8 0-32.7 21.4-59.8 54.1-68.6 11-3 32.2-2.3 43.2 1.4zM1337 2843.6c13 3.7 26.4 14.2 33.8 26.7 8.4 14.1 14.9 34.7 17.3 54.7 1.1 9.6.8 38.4-.4 39.6-.7.7-27.3-5.2-54.2-12-26.8-6.9-50.1-13.8-71.2-21.2l-13.1-4.6 3-7.1c5.9-14.3 16.8-35.4 22.6-44.2 19.2-28.9 38.1-38.6 62.2-31.9zm165.5 78.9c24.9 6.4 41.5 28.7 41.5 55.8v9l-7.7-.7c-25.7-2.2-97.7-11.4-103.7-13.2-1.5-.5-1.7-1.3-1.2-4.4 3.6-22.7 19.5-40.9 40.6-46.4 7.3-2 23.1-2 30.5-.1z"/><path d="M2870.3 971.7c-23 29.7-24.3 31.6-24.3 35.9 0 2.6-.1 2.7-4.6 2-2.5-.3-14.4-4.6-26.3-9.5-25.7-10.5-32.8-13.2-44.1-16.7-15.8-5-29.8-3.3-43.2 5.2-8.2 5.1-8.4 8-1.7 27 4.1 11.5 7.6 18.5 13.3 26 2.5 3.4 4.6 6.5 4.6 6.8 0 .4-4.5 8.8-10 18.8s-10 18.5-10 19c0 .4 11.1.8 24.6.8h24.6l-.6 2.2c-.3 1.3-.9 9.7-1.2 18.8-.6 16-.6 16.7 1.9 24.2 4 11.6 10.1 21.1 20.2 31.4 9.7 9.8 15.9 13.8 24.8 15.5 6.6 1.4 12.9-.2 16.7-4 2.6-2.6 3.8-5.6 7.5-19.5 1.2-4.3 2.8-7.1 6.2-10.7 2.5-2.7 5-4.9 5.5-4.9s5.7 3.1 11.6 6.9c12.4 7.9 15 9.3 21.6 11.5 5.3 1.8 25.6 5 26.4 4.2.8-.9 5.2-20 5.2-22.9 0-1.5-1.1-5.3-2.4-8.5-6.7-15.8-7.4-31.2-2.1-41 5.3-9.7 15.8-17.6 31-23.2 7-2.6 7-2.6 8.7-8 1-3 1.5-5.7 1-6.1-.4-.4-4.3-2.3-8.7-4.2-15.5-6.7-40.8-19.6-43.7-22.3-4.6-4.5-6.7-10.2-7.8-21-.5-5.4-1.5-11.7-2.1-13.8-1-3.5-11.8-31.7-12.4-32.4-.1-.2-4.7 5.5-10.2 12.5zM596.3 1062.1c-4.6 1.3-9.7 7.1-12.2 13.7-3.6 9.7-7.8 16-12.8 19.3-6.9 4.3-13.5 4-28.3-1.2-14.2-5.1-26.8-6.2-36.6-3.4-14.8 4.2-28.6 12.9-31.4 19.5-2.3 5.4-.8 14.1 3.8 23.2 6.8 13.5 16.2 23.4 43.1 45.8l4.2 3.5-3.7 5.5c-2.1 3-6.2 8.2-9.1 11.5-3 3.3-7.1 9.3-9.1 13.4-3.3 6.6-3.6 8.2-3.7 15.5 0 18.8 10.9 35.3 26.8 40.2 3.2.9 11.7 1.8 22.2 2.3 19.3.9 19.5 1 42.7 11.2 15.3 6.8 24 9.4 27.5 8.3 6-1.9 7.6-3.1 9.8-6.8 2.1-3.7 3-6.4 4.9-14.9.4-1.8 3.9-6.1 9-11 8.1-8 10.5-12 14.9-24.8.4-1.2 3.9-1.9 16.8-3.3 9-.9 16.5-1.8 16.6-2 .2-.2-6.8-12.2-15.7-26.6-8.8-14.4-16-26.5-16-26.9 0-.3 3.4-2.4 7.5-4.5 7.7-4.1 17.4-11.6 20.3-15.7.9-1.3 6-7.5 11.4-13.8l9.7-11.3-10.9-6.9c-16.9-10.6-21.1-12.4-35.4-15.2-22-4.4-31.8-11.3-39.6-28-6.6-14.3-15.5-19.8-26.7-16.6zM3110 1729.9c-8.1 4.2-11.9 15.7-8.9 26.6 1.5 5.4 8 11.5 14.9 13.9 14.9 5.2 57.3 22.7 71.5 29.5 52.4 25.2 84.1 51 109.4 89.2 28.3 42.6 41.1 93.2 37.1 146.4-1.2 16.1-1.2 17.7.4 22 3.4 8.8 12.2 14.5 22.5 14.5s15.2-5.9 17-20.5c3.2-25 2.4-57.8-2-83.5-4.4-25.9-11.5-48.2-23.3-72.5-13.6-28.1-26.9-46.8-49.1-69.1-32.6-32.7-72.1-56.6-136-82.4-41.6-16.7-46.3-18-53.5-14.1zM3479.9 1843c-27.8 1-52.1 2.1-54 2.5-12.5 2.7-21.6 14.2-22.7 28.6-1.1 16.4 6.9 28.9 20.7 32.1 3.8.8 17.7.7 58.8-.6 29.6-.9 58.6-1.9 64.6-2.2l10.7-.7V1841l-13.7.1c-7.6.1-36.6 1-64.4 1.9zM0 2162.7v30.9l50.3 1.3c27.6.6 64.2 1.8 81.2 2.6 44.2 2.1 48.9 2 55.1-.9 9.7-4.5 14.9-14.2 14.8-27.6-.1-14.2-8.6-26.6-20.6-30.3-8.1-2.5-70.2-5.3-138.5-6.4l-42.3-.6v31zM926.3 2252c-1.3.5-6.9 3.6-12.5 6.8-5.7 3.3-24.7 13.9-42.3 23.7-76.9 42.6-112.1 66.9-144 99-33.2 33.5-53.2 69.3-60.7 109.2-3.2 17.2-3.2 48.2.1 66.8 5.4 30.5 16.7 59.7 34.3 89.1 9.6 15.9 15.6 23.6 20.8 26.1 9.2 4.7 22.5 1.7 28.6-6.3 2.5-3.3 2.9-4.6 2.9-10.4 0-6.6 0-6.7-7.6-18.1-24.5-36.5-36.3-68.7-39.4-106.9-1.3-16 3-42.1 9.6-58.8 15.3-38.5 47.3-72.9 101.4-108.9 20.1-13.4 35.1-22.2 83.3-48.9 22.4-12.5 42.5-23.8 44.7-25.3 12.6-8.3 10.6-28.9-3.6-36.1-4-2.1-11.7-2.6-15.6-1zM146 2421.4L.5 2459.6l-.3 32.2c-.2 25.4 0 32.2 1 32.2 2.9 0 309.7-80.8 313.2-82.5 4.9-2.4 9.7-7.1 12.2-12.1 1.5-3.1 1.9-6 1.9-14.4 0-9.4-.3-11-2.7-15.5-3.3-6.3-9-11.8-14.8-14.4-10.1-4.6-5.7-5.5-165 36.3z"/></svg>